# File created by Blade
# Date/Time:  Wed Apr 08 17:31:45 2015
#---------------------------------------------------------
:version 1.10
:name HOM
:units
  mass 1.0
  length 1.000000
  angle deg
:documentation
     Acclaim Skeleton File
:root
   axis xyz
   order TX TY TZ RX RY RZ
   position 0.000000 0.000000 0.000000
   orientation 0 0 0
:bonedata
   begin
      id 1
      name Spine_dum
      direction 0.000000 1.000000 0.000000
      length 5.893853
      axis 0.0 0.0 0.0 xyz
   end
   begin
      id 2
      name LeftUpLeg_dum
      direction 1.000000 0.000000 0.000000
      length 3.697939
      axis 0.0 0.0 0.0 xyz
   end
   begin
      id 3
      name RightUpLeg_dum
      direction -1.000000 0.000000 0.000000
      length 3.697939
      axis 0.0 0.0 0.0 xyz
   end
   begin
      id 4
      name Spine
      direction 0.000000 1.000000 0.000000
      length 0.000000
      axis 0.0 0.0 0.0 xyz
      dof rx ry rz
   end
   begin
      id 5
      name Spine_dum1
      direction 0.000000 1.000000 0.000000
      length 16.447146
      axis 0.0 0.0 0.0 xyz
   end
   begin
      id 6
      name Spine_dum2
      direction 0.000000 1.000000 0.000000
      length 10.900383
      axis 0.0 0.0 0.0 xyz
   end
   begin
      id 7
      name Spine_dum3
      direction 0.000000 1.000000 0.000000
      length 10.900383
      axis 0.0 0.0 0.0 xyz
   end
   begin
      id 8
      name Head
      direction 0.000000 1.000000 0.000000
      length 4.527550
      axis 0.0 0.0 0.0 xyz
      dof rx ry rz
   end
   begin
      id 9
      name LeftShoulder
      direction 1.000000 0.000000 0.000000
      length 8.219464
      axis 0.0 0.0 -90.0 xyz
      dof rx ry rz
   end
   begin
      id 10
      name LeftArm
      direction 1.000000 0.000000 0.000000
      length 11.094937
      axis 0.0 0.0 -90.0 xyz
      dof rx ry rz
   end
   begin
      id 11
      name LeftForeArm
      direction 1.000000 0.000000 0.000000
      length 9.103875
      axis 0.0 0.0 -90.0 xyz
      dof ry rz rx
   end
   begin
      id 12
      name LeftHand
      direction 0.000000 0.000000 0.000000
      length 0.000000
      axis 0.0 0.0 -90.0 xyz
      dof rx ry rz
   end
   begin
      id 13
      name LeftHand_dum1
      direction 0.000000 0.000000 0.000000
      length 0.000000
      axis 0.0 0.0 -90.0 xyz
   end
   begin
      id 14
      name LeftHand_dum2
      direction 1.000000 0.000000 0.000000
      length 3.937000
      axis 0.0 0.0 -90.0 xyz
   end
   begin
      id 15
      name LeftHandThumb1
      direction 0.000000 0.000000 1.000000
      length 3.937000
      axis 0.0 0.0 -90.0 xyz
      dof rx rz ry
   end
   begin
      id 16
      name RightShoulder
      direction -1.000000 0.000000 0.000000
      length 8.219464
      axis 0.0 0.0 90.0 xyz
      dof rx ry rz
   end
   begin
      id 17
      name RightArm
      direction -1.000000 0.000000 0.000000
      length 11.094937
      axis 0.0 0.0 90.0 xyz
      dof rx ry rz
   end
   begin
      id 18
      name RightForeArm
      direction -1.000000 0.000000 0.000000
      length 9.103875
      axis 0.0 0.0 90.0 xyz
      dof ry rz rx
   end
   begin
      id 19
      name RightHand
      direction 0.000000 0.000000 0.000000
      length 0.000000
      axis 0.0 0.0 90.0 xyz
      dof rx ry rz
   end
   begin
      id 20
      name RightHand_dum1
      direction 0.000000 0.000000 0.000000
      length 0.000000
      axis 0.0 0.0 90.0 xyz
   end
   begin
      id 21
      name RightHand_dum2
      direction -1.000000 0.000000 0.000000
      length 3.937000
      axis 0.0 0.0 90.0 xyz
   end
   begin
      id 22
      name RightHandThumb1
      direction 0.000000 0.000000 1.000000
      length 3.937000
      axis 0.0 0.0 90.0 xyz
      dof rx rz ry
   end
   begin
      id 23
      name LeftUpLeg
      direction 0.000000 -1.000000 0.000000
      length 16.181467
      axis 0.0 0.0 0.0 xyz
      dof rx ry rz
   end
   begin
      id 24
      name LeftLeg
      direction 0.000000 -1.000000 0.000000
      length 16.501392
      axis 0.0 0.0 0.0 xyz
      dof rx ry rz
   end
   begin
      id 25
      name LeftFoot
      direction 0.000000 -0.258819 0.965926
      length 6.408245
      axis 15.0 0.0 0.0 xyz
      dof rx ry rz
   end
   begin
      id 26
      name LeftToeBase
      direction 0.000000 0.000000 1.000000
      length 2.952750
      axis 0.0 0.0 0.0 xyz
      dof rx ry rz
   end
   begin
      id 27
      name RightUpLeg
      direction 0.000000 -1.000000 0.000000
      length 16.181467
      axis 0.0 0.0 0.0 xyz
      dof rx ry rz
   end
   begin
      id 28
      name RightLeg
      direction 0.000000 -1.000000 0.000000
      length 16.501392
      axis 0.0 0.0 0.0 xyz
      dof rx ry rz
   end
   begin
      id 29
      name RightFoot
      direction 0.000000 -0.258819 0.965926
      length 6.408245
      axis 15.0 0.0 0.0 xyz
      dof rx ry rz
   end
   begin
      id 30
      name RightToeBase
      direction 0.000000 0.000000 1.000000
      length 2.952750
      axis 0.0 0.0 0.0 xyz
      dof rx ry rz
   end
:hierarchy
   begin
      root Spine_dum LeftUpLeg_dum RightUpLeg_dum
      Spine_dum Spine
      LeftUpLeg_dum LeftUpLeg
      RightUpLeg_dum RightUpLeg
      Spine Spine_dum1 Spine_dum2 Spine_dum3
      Spine_dum1 Head
      Spine_dum2 LeftShoulder
      Spine_dum3 RightShoulder
      LeftShoulder LeftArm
      LeftArm LeftForeArm
      LeftForeArm LeftHand
      LeftHand LeftHand_dum1 LeftHand_dum2
      LeftHand_dum1 LeftHandThumb1
      RightShoulder RightArm
      RightArm RightForeArm
      RightForeArm RightHand
      RightHand RightHand_dum1 RightHand_dum2
      RightHand_dum1 RightHandThumb1
      LeftUpLeg LeftLeg
      LeftLeg LeftFoot
      LeftFoot LeftToeBase
      RightUpLeg RightLeg
      RightLeg RightFoot
      RightFoot RightToeBase
   end

# File created by Blade
# Date/Time:  Wed Apr 08 17:31:39 2015
# Frame Rate: 120.000 fps
#------------------------------------------------------
:FULLY-SPECIFIED
:DEGREES
405
root 11.915277 19.554233 -0.949333 -554.044282 -87.466716 346.640271
Spine 238.023831 1.325369 -1.101068
Head 25.425615 12.742491 5.215705
LeftShoulder 14.948313 -3.836778 40.132202
LeftArm 54.603449 -13.414444 -29.881414
LeftForeArm 30.895398 -0.000000 21.626327
LeftHand -5.799691 -0.000000 -6.193909
LeftHandThumb1 -26.253704 0.000000 33.147579
RightShoulder 8.398278 -22.793075 -47.111026
RightArm 77.145498 27.071105 33.932339
RightForeArm -11.293512 -0.000000 23.398923
RightHand 4.278688 -0.000000 7.838613
RightHandThumb1 -24.326973 -0.000000 -32.862282
LeftUpLeg 123.642696 -9.043143 -10.280594
LeftLeg 112.246943 -0.000000 -0.000000
LeftFoot -31.572385 10.465063 -4.429632
LeftToeBase 0.331842 -0.000000 -0.000000
RightUpLeg 127.529505 15.496815 10.640573
RightLeg 114.169685 -0.000000 -0.000000
RightFoot -38.798120 -3.377462 2.406197
RightToeBase 7.053274 -0.000000 -0.000000
406
root 11.894902 19.584124 -0.947944 -554.279667 -87.462036 347.046254
Spine 237.991470 1.311818 -1.130586
Head 25.478453 12.608332 5.197890
LeftShoulder 14.989300 -3.997726 40.175957
LeftArm 54.656555 -13.254932 -29.824286
LeftForeArm 31.172810 -0.000000 21.538039
LeftHand -5.740139 -0.000000 -6.158737
LeftHandThumb1 -26.253704 0.000000 33.147579
RightShoulder 8.416686 -22.748401 -47.103189
RightArm 77.092060 27.076624 33.886470
RightForeArm -11.308830 -0.000000 23.410683
RightHand 4.421667 0.000000 7.718978
RightHandThumb1 -24.326973 -0.000000 -32.862282
LeftUpLeg 123.606484 -9.037498 -10.238990
LeftLeg 112.166580 -0.000000 -0.000000
LeftFoot -31.586990 10.438271 -4.380118
LeftToeBase 0.364099 -0.000000 -0.000000
RightUpLeg 127.487599 15.443459 10.610668
RightLeg 114.095773 -0.000000 -0.000000
RightFoot -38.822232 -3.437653 2.425279
RightToeBase 7.093933 -0.000000 -0.000000
407
root 11.875771 19.613073 -0.948152 -554.002398 -87.469754 346.911105
Spine 237.985849 1.281026 -1.161431
Head 25.568029 12.510324 5.238825
LeftShoulder 15.022809 -4.094996 40.238473
LeftArm 54.723744 -13.115447 -29.677978
LeftForeArm 31.364936 -0.000000 21.436751
LeftHand -5.568966 -0.000000 -6.129354
LeftHandThumb1 -26.253704 0.000000 33.147579
RightShoulder 8.421862 -22.764070 -47.069011
RightArm 77.126067 27.118641 33.879757
RightForeArm -11.323321 0.000000 23.391077
RightHand 4.368145 -0.000000 7.797225
RightHandThumb1 -24.326973 -0.000000 -32.862282
LeftUpLeg 123.594303 -9.052648 -10.238669
LeftLeg 112.092583 -0.000000 -0.000000
LeftFoot -31.607346 10.412661 -4.355403
LeftToeBase 0.512371 -0.000000 -0.000000
RightUpLeg 127.468976 15.383128 10.555097
RightLeg 114.015690 -0.000000 -0.000000
RightFoot -38.855190 -3.513957 2.439757
RightToeBase 7.171506 -0.000000 -0.000000
408
root 11.855244 19.644110 -0.946054 -553.394994 -87.490318 346.512972
Spine 237.939532 1.253210 -1.207064
Head 25.601398 12.432303 5.207857
LeftShoulder 15.013410 -3.871218 40.252853
LeftArm 54.910864 -13.093399 -29.052121
LeftForeArm 31.191966 -0.000000 21.338574
LeftHand -5.592951 -0.000000 -6.049150
LeftHandThumb1 -26.253704 0.000000 33.147579
RightShoulder 8.417385 -22.713936 -47.070119
RightArm 77.173837 27.135690 33.953849
RightForeArm -11.333975 0.000000 23.363400
RightHand 4.527572 -0.000000 7.666481
RightHandThumb1 -24.326973 -0.000000 -32.862282
LeftUpLeg 123.520429 -9.098286 -10.244880
LeftLeg 112.027079 -0.000000 -0.000000
LeftFoot -31.619421 10.331224 -4.397856
LeftToeBase 0.539647 -0.000000 -0.000000
RightUpLeg 127.385433 15.335287 10.471131
RightLeg 113.928417 -0.000000 -0.000000
RightFoot -38.888157 -3.588332 2.446067
RightToeBase 7.261637 -0.000000 -0.000000
